<svg xmlns="http://www.w3.org/2000/svg" width="805" height="600"><rect width="805" height="600" x="0" y="0" fill="#FFFFFF" id="background"/><g transform="translate(50,10)" id="viz"><g id="axis"><g transform="translate(0,540)" fill="none" font-size="10" font-family="sans-serif" text-anchor="middle"><path class="domain" stroke="currentColor" d="M0,6V0H705V6"/><g class="tick" opacity="1" transform="translate(0,0)"><line stroke="currentColor" y2="6"/><text fill="currentColor" y="9" dy="0.71em">6.0</text></g><g class="tick" opacity="1" transform="translate(70.5,0)"><line stroke="currentColor" y2="6"/><text fill="currentColor" y="9" dy="0.71em">6.5</text></g><g class="tick" opacity="1" transform="translate(141,0)"><line stroke="currentColor" y2="6"/><text fill="currentColor" y="9" dy="0.71em">7.0</text></g><g class="tick" opacity="1" transform="translate(211.5,0)"><line stroke="currentColor" y2="6"/><text fill="currentColor" y="9" dy="0.71em">7.5</text></g><g class="tick" opacity="1" transform="translate(282,0)"><line stroke="currentColor" y2="6"/><text fill="currentColor" y="9" dy="0.71em">8.0</text></g><g class="tick" opacity="1" transform="translate(352.5,0)"><line stroke="currentColor" y2="6"/><text fill="currentColor" y="9" dy="0.71em">8.5</text></g><g class="tick" opacity="1" transform="translate(423,0)"><line stroke="currentColor" y2="6"/><text fill="currentColor" y="9" dy="0.71em">9.0</text></g><g class="tick" opacity="1" transform="translate(493.49999999999994,0)"><line stroke="currentColor" y2="6"/><text fill="currentColor" y="9" dy="0.71em">9.5</text></g><g class="tick" opacity="1" transform="translate(564,0)"><line stroke="currentColor" y2="6"/><text fill="currentColor" y="9" dy="0.71em">10.0</text></g><g class="tick" opacity="1" transform="translate(634.5,0)"><line stroke="currentColor" y2="6"/><text fill="currentColor" y="9" dy="0.71em">10.5</text></g><g class="tick" opacity="1" transform="translate(705,0)"><line stroke="currentColor" y2="6"/><text fill="currentColor" y="9" dy="0.71em">11.0</text></g><text x="705" dy="-5" text-anchor="end" style="font-family: Arial, sans-serif; font-size: 12px; fill: rgb(123, 123, 123); font-weight: bold;">Horas de sueño</text></g><g fill="none" font-size="10" font-family="sans-serif" text-anchor="end"><path class="domain" stroke="currentColor" d="M0,0V540"/><g class="tick" opacity="1" transform="translate(0,40)"><line stroke="currentColor" x2="705" style="stroke: rgb(204, 204, 204);"/><text fill="currentColor" x="-3" dy="0.32em">Lunes</text></g><g class="tick" opacity="1" transform="translate(0,117)"><line stroke="currentColor" x2="705" style="stroke: rgb(204, 204, 204);"/><text fill="currentColor" x="-3" dy="0.32em">Martes</text></g><g class="tick" opacity="1" transform="translate(0,194)"><line stroke="currentColor" x2="705" style="stroke: rgb(204, 204, 204);"/><text fill="currentColor" x="-3" dy="0.32em">Miércoles</text></g><g class="tick" opacity="1" transform="translate(0,271)"><line stroke="currentColor" x2="705" style="stroke: rgb(204, 204, 204);"/><text fill="currentColor" x="-3" dy="0.32em">Jueves</text></g><g class="tick" opacity="1" transform="translate(0,348)"><line stroke="currentColor" x2="705" style="stroke: rgb(204, 204, 204);"/><text fill="currentColor" x="-3" dy="0.32em">Viernes</text></g><g class="tick" opacity="1" transform="translate(0,425)"><line stroke="currentColor" x2="705" style="stroke: rgb(204, 204, 204);"/><text fill="currentColor" x="-3" dy="0.32em">Sábado</text></g><g class="tick" opacity="1" transform="translate(0,502)"><line stroke="currentColor" x2="705" style="stroke: rgb(204, 204, 204);"/><text fill="currentColor" x="-3" dy="0.32em">Domingo</text></g><text x="4" text-anchor="start" dominant-baseline="hanging" style="font-family: Arial, sans-serif; font-size: 12px; fill: rgb(123, 123, 123); font-weight: bold;">Día de la semana</text></g></g><g id="visualization"><g id="Lunes"><g id="circles"><circle id="" cx="314.85710550450983" cy="39.5" r="12.533616722536253" style="fill: rgb(91, 143, 249);"/><circle id="" cx="535.8000000000001" cy="39.5" r="7.599816830397826" style="fill: rgb(91, 143, 249);"/><circle id="" cx="423" cy="39.5" r="14.768450177135717" style="fill: rgb(91, 143, 249);"/><circle id="" cx="276.0923118044738" cy="39.5" r="10.23117697749974" style="fill: rgb(91, 143, 249);"/></g><g id="labels"><g id="" transform="translate(314.85710550450983,39.5)"><text x="0" y="0" text-anchor="middle" dominant-baseline="text-before-edge" transform="translate(0,0)"/></g><g id="" transform="translate(535.8000000000001,39.5)"><text x="0" y="0" text-anchor="middle" dominant-baseline="text-before-edge" transform="translate(0,0)"/></g><g id="" transform="translate(423,39.5)"><text x="0" y="0" text-anchor="middle" dominant-baseline="text-before-edge" transform="translate(0,0)"/></g><g id="" transform="translate(276.0923118044738,39.5)"><text x="0" y="0" text-anchor="middle" dominant-baseline="text-before-edge" transform="translate(0,0)"/></g></g></g><g id="Martes"><g id="circles"><circle id="" cx="197.40000000000006" cy="116.5" r="5.65910249213596" style="fill: rgb(97, 221, 170);"/><circle id="" cx="74.64645651054668" cy="125.52056627190565" r="12.533616722536253" style="fill: rgb(97, 221, 170);"/><circle id="" cx="37.93940011955461" cy="107.37356690081506" r="12.414174122219146" style="fill: rgb(97, 221, 170);"/></g><g id="labels"><g id="" transform="translate(197.40000000000006,116.5)"><text x="0" y="0" text-anchor="middle" dominant-baseline="text-before-edge" transform="translate(0,0)"/></g><g id="" transform="translate(74.64645651054668,125.52056627190565)"><text x="0" y="0" text-anchor="middle" dominant-baseline="text-before-edge" transform="translate(0,0)"/></g><g id="" transform="translate(37.93940011955461,107.37356690081506)"><text x="0" y="0" text-anchor="middle" dominant-baseline="text-before-edge" transform="translate(0,0)"/></g></g></g><g id="Miércoles"><g id="circles"><circle id="" cx="94.99024366659641" cy="193.5" r="5" style="fill: rgb(101, 120, 155);"/><circle id="" cx="253.79999999999998" cy="193.5" r="5" style="fill: rgb(101, 120, 155);"/><circle id="" cx="128.40441778881555" cy="193.5" r="12.414174122219146" style="fill: rgb(101, 120, 155);"/><circle id="" cx="169.20000000000005" cy="193.5" r="5.132326051771508" style="fill: rgb(101, 120, 155);"/></g><g id="labels"><g id="" transform="translate(94.99024366659641,193.5)"><text x="0" y="0" text-anchor="middle" dominant-baseline="text-before-edge" transform="translate(0,0)"/></g><g id="" transform="translate(253.79999999999998,193.5)"><text x="0" y="0" text-anchor="middle" dominant-baseline="text-before-edge" transform="translate(0,0)"/></g><g id="" transform="translate(128.40441778881555,193.5)"><text x="0" y="0" text-anchor="middle" dominant-baseline="text-before-edge" transform="translate(0,0)"/></g><g id="" transform="translate(169.20000000000005,193.5)"><text x="0" y="0" text-anchor="middle" dominant-baseline="text-before-edge" transform="translate(0,0)"/></g></g></g><g id="Jueves"><g id="circles"><circle id="" cx="154.54465259362541" cy="270.5" r="14.884310468435354" style="fill: rgb(126, 87, 194);"/><circle id="" cx="198.0818353170673" cy="270.5" r="12.65287225500651" style="fill: rgb(126, 87, 194);"/><circle id="" cx="253.79999999999998" cy="270.5" r="12.414174122219146" style="fill: rgb(126, 87, 194);"/></g><g id="labels"><g id="" transform="translate(154.54465259362541,270.5)"><text x="0" y="0" text-anchor="middle" dominant-baseline="text-before-edge" transform="translate(0,0)"/></g><g id="" transform="translate(198.0818353170673,270.5)"><text x="0" y="0" text-anchor="middle" dominant-baseline="text-before-edge" transform="translate(0,0)"/></g><g id="" transform="translate(253.79999999999998,270.5)"><text x="0" y="0" text-anchor="middle" dominant-baseline="text-before-edge" transform="translate(0,0)"/></g></g></g><g id="Viernes"><g id="circles"><circle id="" cx="352.010710607899" cy="347.5" r="12.414174122219146" style="fill: rgb(156, 106, 222);"/><circle id="" cx="395.19333490725387" cy="347.5" r="14.768450177135717" style="fill: rgb(156, 106, 222);"/><circle id="" cx="239.70000000000002" cy="347.5" r="12.533616722536253" style="fill: rgb(156, 106, 222);"/><circle id="" cx="42.299999999999976" cy="347.5" r="14.884310468435354" style="fill: rgb(156, 106, 222);"/></g><g id="labels"><g id="" transform="translate(352.010710607899,347.5)"><text x="0" y="0" text-anchor="middle" dominant-baseline="text-before-edge" transform="translate(0,0)"/></g><g id="" transform="translate(395.19333490725387,347.5)"><text x="0" y="0" text-anchor="middle" dominant-baseline="text-before-edge" transform="translate(0,0)"/></g><g id="" transform="translate(239.70000000000002,347.5)"><text x="0" y="0" text-anchor="middle" dominant-baseline="text-before-edge" transform="translate(0,0)"/></g><g id="" transform="translate(42.299999999999976,347.5)"><text x="0" y="0" text-anchor="middle" dominant-baseline="text-before-edge" transform="translate(0,0)"/></g></g></g><g id="Sábado"><g id="circles"><circle id="" cx="56.40000000000005" cy="424.5" r="14.884310468435354" style="fill: rgb(246, 189, 22);"/><circle id="" cx="141" cy="424.5" r="7.472084331270287" style="fill: rgb(246, 189, 22);"/><circle id="" cx="253.5290148903307" cy="424.5" r="7.727320622620209" style="fill: rgb(246, 189, 22);"/><circle id="" cx="282.38866156472244" cy="424.5" r="5.132326051771508" style="fill: rgb(246, 189, 22);"/><circle id="" cx="648.5999999999999" cy="424.5" r="15" style="fill: rgb(246, 189, 22);"/></g><g id="labels"><g id="" transform="translate(56.40000000000005,424.5)"><text x="0" y="0" text-anchor="middle" dominant-baseline="text-before-edge" transform="translate(0,0)"/></g><g id="" transform="translate(141,424.5)"><text x="0" y="0" text-anchor="middle" dominant-baseline="text-before-edge" transform="translate(0,0)"/></g><g id="" transform="translate(253.5290148903307,424.5)"><text x="0" y="0" text-anchor="middle" dominant-baseline="text-before-edge" transform="translate(0,0)"/></g><g id="" transform="translate(282.38866156472244,424.5)"><text x="0" y="0" text-anchor="middle" dominant-baseline="text-before-edge" transform="translate(0,0)"/></g><g id="" transform="translate(648.5999999999999,424.5)"><text x="0" y="0" text-anchor="middle" dominant-baseline="text-before-edge" transform="translate(0,0)"/></g></g></g><g id="Domingo"><g id="circles"><circle id="" cx="84.59999999999995" cy="501.5" r="12.65287225500651" style="fill: rgb(232, 104, 74);"/><circle id="" cx="507.59999999999997" cy="501.5" r="5.132326051771508" style="fill: rgb(232, 104, 74);"/><circle id="" cx="197.40000000000006" cy="501.5" r="12.533616722536253" style="fill: rgb(232, 104, 74);"/><circle id="" cx="408.90000000000003" cy="501.5" r="5" style="fill: rgb(232, 104, 74);"/><circle id="" cx="310.1999999999999" cy="501.5" r="5.132326051771508" style="fill: rgb(232, 104, 74);"/></g><g id="labels"><g id="" transform="translate(84.59999999999995,501.5)"><text x="0" y="0" text-anchor="middle" dominant-baseline="text-before-edge" transform="translate(0,0)"/></g><g id="" transform="translate(507.59999999999997,501.5)"><text x="0" y="0" text-anchor="middle" dominant-baseline="text-before-edge" transform="translate(0,0)"/></g><g id="" transform="translate(197.40000000000006,501.5)"><text x="0" y="0" text-anchor="middle" dominant-baseline="text-before-edge" transform="translate(0,0)"/></g><g id="" transform="translate(408.90000000000003,501.5)"><text x="0" y="0" text-anchor="middle" dominant-baseline="text-before-edge" transform="translate(0,0)"/></g><g id="" transform="translate(310.1999999999999,501.5)"><text x="0" y="0" text-anchor="middle" dominant-baseline="text-before-edge" transform="translate(0,0)"/></g></g></g></g></g></svg>