<svg xmlns="http://www.w3.org/2000/svg" width="1005" height="620">
  <rect width="1005" height="620" x="0" y="0" fill="#FFFFFF" id="background"/>
  <g id="viz">
    <g transform="translate(0,0)">
      <g transform="translate(50,20)">
        <g id="Profundo" fill="#1a4f7a">
          <rect x="0.9986595174262902" y="422.5454545454545" width="25.57281692837993" height="137.4545454545455"/>
          <rect x="27.57013596323249" y="449.0181818181818" width="25.57281692837993" height="110.9818181818182"/>
          <rect x="54.14161240903869" y="452.07272727272726" width="25.57281692837993" height="107.92727272727274"/>
          <rect x="80.7130888548449" y="426.1090909090909" width="25.57281692837993" height="133.89090909090908"/>
          <rect x="107.2845653006511" y="460.72727272727275" width="25.57281692837993" height="99.27272727272725"/>
          <rect x="133.8560417464573" y="471.92727272727274" width="25.57281692837993" height="88.07272727272726"/>
          <rect x="160.4275181922635" y="436.8" width="25.57281692837993" height="123.19999999999999"/>
          <rect x="186.9989946380697" y="408.29090909090905" width="25.57281692837993" height="151.70909090909095"/>
          <rect x="213.5704710838759" y="460.72727272727275" width="25.57281692837993" height="99.27272727272725"/>
          <rect x="240.1419475296821" y="432.7272727272727" width="25.57281692837993" height="127.27272727272731"/>
          <rect x="266.7134239754883" y="421.5272727272727" width="25.57281692837993" height="138.4727272727273"/>
          <rect x="293.2849004212945" y="456.6545454545454" width="25.57281692837993" height="103.34545454545457"/>
          <rect x="319.8563768671007" y="457.1636363636364" width="25.57281692837993" height="102.83636363636361"/>
          <rect x="346.4278533129069" y="440.3636363636364" width="25.57281692837993" height="119.63636363636363"/>
          <rect x="372.9993297587131" y="435.27272727272725" width="25.57281692837993" height="124.72727272727275"/>
          <rect x="399.57080620451933" y="449.5272727272727" width="25.57281692837993" height="110.4727272727273"/>
          <rect x="426.1422826503255" y="440.3636363636364" width="25.57281692837993" height="119.63636363636363"/>
          <rect x="452.7137590961317" y="404.7272727272727" width="25.57281692837993" height="155.2727272727273"/>
          <rect x="479.28523554193794" y="455.6363636363637" width="25.57281692837993" height="104.36363636363632"/>
          <rect x="505.8567119877441" y="449.0181818181818" width="25.57281692837993" height="110.9818181818182"/>
          <rect x="532.4281884335503" y="454.61818181818177" width="25.57281692837993" height="105.38181818181823"/>
          <rect x="558.9996648793565" y="442.9090909090909" width="25.57281692837993" height="117.09090909090912"/>
          <rect x="585.5711413251627" y="438.83636363636367" width="25.57281692837993" height="121.16363636363633"/>
          <rect x="612.142617770969" y="464.79999999999995" width="25.57281692837993" height="95.20000000000005"/>
          <rect x="638.7140942167752" y="434.25454545454545" width="25.57281692837993" height="125.74545454545455"/>
          <rect x="665.2855706625813" y="450.54545454545456" width="25.57281692837993" height="109.45454545454544"/>
          <rect x="691.8570471083875" y="375.7090909090909" width="25.57281692837993" height="184.2909090909091"/>
          <rect x="718.4285235541937" y="451.56363636363636" width="25.57281692837993" height="108.43636363636364"/>
        </g>
        <g id="REM" fill="#7c5cbf">
          <rect x="0.9986595174262902" y="357.89090909090913" width="25.57281692837993" height="64.65454545454548"/>
          <rect x="27.57013596323249" y="406.76363636363635" width="25.57281692837993" height="42.25454545454545"/>
          <rect x="54.14161240903869" y="408.8" width="25.57281692837993" height="43.27272727272725"/>
          <rect x="80.7130888548449" y="363.49090909090916" width="25.57281692837993" height="62.618181818181824"/>
          <rect x="107.2845653006511" y="416.43636363636364" width="25.57281692837993" height="44.290909090909054"/>
          <rect x="133.8560417464573" y="421.0181818181818" width="25.57281692837993" height="50.909090909090935"/>
          <rect x="160.4275181922635" y="382.32727272727266" width="25.57281692837993" height="54.4727272727273"/>
          <rect x="186.9989946380697" y="323.2727272727272" width="25.57281692837993" height="85.01818181818186"/>
          <rect x="213.5704710838759" y="392" width="25.57281692837993" height="68.72727272727269"/>
          <rect x="240.1419475296821" y="369.0909090909091" width="25.57281692837993" height="63.636363636363626"/>
          <rect x="266.7134239754883" y="345.1636363636363" width="25.57281692837993" height="76.36363636363643"/>
          <rect x="293.2849004212945" y="418.4727272727273" width="25.57281692837993" height="38.18181818181813"/>
          <rect x="319.8563768671007" y="406.25454545454545" width="25.57281692837993" height="50.909090909090935"/>
          <rect x="346.4278533129069" y="384.3636363636363" width="25.57281692837993" height="56"/>
          <rect x="372.9993297587131" y="385.38181818181823" width="25.57281692837993" height="49.890909090909076"/>
          <rect x="399.57080620451933" y="406.25454545454545" width="25.57281692837993" height="43.27272727272725"/>
          <rect x="426.1422826503255" y="369.0909090909091" width="25.57281692837993" height="71.27272727272725"/>
          <rect x="452.7137590961317" y="354.8363636363637" width="25.57281692837993" height="49.890909090909076"/>
          <rect x="479.28523554193794" y="400.6545454545454" width="25.57281692837993" height="54.98181818181814"/>
          <rect x="505.8567119877441" y="397.090909090909" width="25.57281692837993" height="51.92727272727274"/>
          <rect x="532.4281884335503" y="378.2545454545455" width="25.57281692837993" height="76.36363636363637"/>
          <rect x="558.9996648793565" y="366.54545454545456" width="25.57281692837993" height="76.36363636363637"/>
          <rect x="585.5711413251627" y="363.49090909090916" width="25.57281692837993" height="75.34545454545452"/>
          <rect x="612.142617770969" y="410.3272727272727" width="25.57281692837993" height="54.4727272727273"/>
          <rect x="638.7140942167752" y="390.9818181818182" width="25.57281692837993" height="43.27272727272725"/>
          <rect x="665.2855706625813" y="389.4545454545455" width="25.57281692837993" height="61.09090909090912"/>
          <rect x="691.8570471083875" y="272.3636363636364" width="25.57281692837993" height="103.34545454545457"/>
          <rect x="718.4285235541937" y="390.4727272727273" width="25.57281692837993" height="61.09090909090912"/>
        </g>
        <g id="Ligero" fill="#89b4d9">
          <rect x="0.9986595174262902" y="127.78181818181817" width="25.57281692837993" height="230.10909090909092"/>
          <rect x="27.57013596323249" y="232.65454545454548" width="25.57281692837993" height="174.10909090909087"/>
          <rect x="54.14161240903869" y="222.9818181818182" width="25.57281692837993" height="185.8181818181818"/>
          <rect x="80.7130888548449" y="140.50909090909087" width="25.57281692837993" height="222.9818181818182"/>
          <rect x="107.2845653006511" y="183.78181818181815" width="25.57281692837993" height="232.65454545454548"/>
          <rect x="133.8560417464573" y="219.9272727272727" width="25.57281692837993" height="201.09090909090912"/>
          <rect x="160.4275181922635" y="196.50909090909087" width="25.57281692837993" height="185.8181818181818"/>
          <rect x="186.9989946380697" y="110.98181818181816" width="25.57281692837993" height="212.2909090909091"/>
          <rect x="213.5704710838759" y="202.61818181818182" width="25.57281692837993" height="189.38181818181818"/>
          <rect x="240.1419475296821" y="69.74545454545459" width="25.57281692837993" height="299.34545454545446"/>
          <rect x="266.7134239754883" y="63.63636363636364" width="25.57281692837993" height="281.5272727272727"/>
          <rect x="293.2849004212945" y="235.20000000000002" width="25.57281692837993" height="183.27272727272725"/>
          <rect x="319.8563768671007" y="163.41818181818184" width="25.57281692837993" height="242.83636363636361"/>
          <rect x="346.4278533129069" y="185.81818181818187" width="25.57281692837993" height="198.5454545454545"/>
          <rect x="372.9993297587131" y="169.01818181818186" width="25.57281692837993" height="216.36363636363637"/>
          <rect x="399.57080620451933" y="165.45454545454544" width="25.57281692837993" height="240.8"/>
          <rect x="426.1422826503255" y="184.79999999999998" width="25.57281692837993" height="184.2909090909091"/>
          <rect x="452.7137590961317" y="101.30909090909091" width="25.57281692837993" height="253.52727272727276"/>
          <rect x="479.28523554193794" y="231.63636363636365" width="25.57281692837993" height="169.0181818181818"/>
          <rect x="505.8567119877441" y="210.25454545454548" width="25.57281692837993" height="186.83636363636361"/>
          <rect x="532.4281884335503" y="155.2727272727273" width="25.57281692837993" height="222.98181818181814"/>
          <rect x="558.9996648793565" y="108.43636363636355" width="25.57281692837993" height="258.1090909090909"/>
          <rect x="585.5711413251627" y="155.78181818181818" width="25.57281692837993" height="207.7090909090909"/>
          <rect x="612.142617770969" y="193.96363636363634" width="25.57281692837993" height="216.36363636363637"/>
          <rect x="638.7140942167752" y="165.45454545454544" width="25.57281692837993" height="225.5272727272727"/>
          <rect x="665.2855706625813" y="237.74545454545455" width="25.57281692837993" height="151.70909090909095"/>
          <rect x="691.8570471083875" y="17.818181818181777" width="25.57281692837993" height="254.54545454545456"/>
          <rect x="718.4285235541937" y="142.03636363636357" width="25.57281692837993" height="248.4363636363637"/>
        </g>
        <g id="Despierto" fill="#d0cfc9">
          <rect x="0.9986595174262902" y="118.61818181818181" width="25.57281692837993" height="9.163636363636328"/>
          <rect x="27.57013596323249" y="185.3090909090909" width="25.57281692837993" height="47.34545454545446"/>
          <rect x="54.14161240903869" y="178.18181818181822" width="25.57281692837993" height="44.799999999999955"/>
          <rect x="80.7130888548449" y="135.4181818181818" width="25.57281692837993" height="5.090909090909008"/>
          <rect x="107.2845653006511" y="176.1454545454545" width="25.57281692837993" height="7.636363636363626"/>
          <rect x="133.8560417464573" y="218.90909090909096" width="25.57281692837993" height="1.0181818181818016"/>
          <rect x="160.4275181922635" y="194.98181818181817" width="25.57281692837993" height="1.5272727272728162"/>
          <rect x="186.9989946380697" y="109.96363636363638" width="25.57281692837993" height="1.0181818181818016"/>
          <rect x="213.5704710838759" y="184.80000000000004" width="25.57281692837993" height="17.818181818181756"/>
          <rect x="240.1419475296821" y="59.56363636363647" width="25.57281692837993" height="10.18181818181813"/>
          <rect x="266.7134239754883" y="44.80000000000004" width="25.57281692837993" height="18.836363636363558"/>
          <rect x="293.2849004212945" y="227.56363636363636" width="25.57281692837993" height="7.636363636363626"/>
          <rect x="319.8563768671007" y="163.41818181818184" width="25.57281692837993" height="0"/>
          <rect x="346.4278533129069" y="184.80000000000004" width="25.57281692837993" height="1.0181818181818016"/>
          <rect x="372.9993297587131" y="169.01818181818186" width="25.57281692837993" height="0"/>
          <rect x="399.57080620451933" y="165.45454545454544" width="25.57281692837993" height="0"/>
          <rect x="426.1422826503255" y="183.7818181818182" width="25.57281692837993" height="1.0181818181818016"/>
          <rect x="452.7137590961317" y="93.67272727272726" width="25.57281692837993" height="7.636363636363626"/>
          <rect x="479.28523554193794" y="231.63636363636365" width="25.57281692837993" height="0"/>
          <rect x="505.8567119877441" y="202.61818181818182" width="25.57281692837993" height="7.636363636363626"/>
          <rect x="532.4281884335503" y="152.72727272727278" width="25.57281692837993" height="2.545454545454504"/>
          <rect x="558.9996648793565" y="108.43636363636355" width="25.57281692837993" height="0"/>
          <rect x="585.5711413251627" y="154.76363636363644" width="25.57281692837993" height="1.0181818181818016"/>
          <rect x="612.142617770969" y="192.94545454545457" width="25.57281692837993" height="1.0181818181818016"/>
          <rect x="638.7140942167752" y="165.45454545454544" width="25.57281692837993" height="0"/>
          <rect x="665.2855706625813" y="236.72727272727272" width="25.57281692837993" height="1.0181818181818016"/>
          <rect x="691.8570471083875" y="16.800000000000015" width="25.57281692837993" height="1.0181818181818016"/>
          <rect x="718.4285235541937" y="142.03636363636357" width="25.57281692837993" height="0"/>
        </g>
        <g id="referenceBand">
          <!-- Banda 7–9 h -->
          <rect
            x="0"
            y="101.81818181818178"
            width="745"
            height="101.81818181818187"
            opacity="0"
          />
          <!-- Línea 9 h -->
          <line
            x1="0"
            y1="101.81818181818178"
            x2="745"
            y2="101.81818181818178"
            stroke="#6aa56a"
            stroke-width="1.5"
            stroke-dasharray="4,3"
          />
          <!-- Línea 7 h -->
          <line
            x1="0"
            y1="203.63636363636365"
            x2="745"
            y2="203.63636363636365"
            stroke="#6aa56a"
            stroke-width="1.5"
            stroke-dasharray="4,3"
          />
          <!-- Etiqueta -->
          <text
            x="740"
            y="115"
            text-anchor="end"
            style="font-family: Arial, sans-serif; font-size: 11px; fill: #4f7f4f; font-weight: bold;"
          >
            Rango recomendado (7–9 h)
          </text>
        </g>
        <g id="xAxis" transform="translate(0,560)" fill="none" font-size="10" font-family="sans-serif" text-anchor="middle">
          <path class="domain" stroke="currentColor" d="M0,0H745"/>
          <g class="tick" opacity="1" transform="translate(13.785067981616255,0)">
            <line stroke="currentColor" y2="6"/>
            <text fill="currentColor" y="9" dy="0.71em">21</text>
            <text fill="currentColor" y="22" dy="0.71em">Enero</text>
          </g>
          <g class="tick" opacity="1" transform="translate(40.356544427422456,0)">
            <line stroke="currentColor" y2="6"/>
            <text fill="currentColor" y="9" dy="0.71em">22</text>
          </g>
          <g class="tick" opacity="1" transform="translate(66.92802087322866,0)">
            <line stroke="currentColor" y2="6"/>
            <text fill="currentColor" y="9" dy="0.71em">23</text>
          </g>
          <g class="tick" opacity="1" transform="translate(93.49949731903486,0)">
            <line stroke="currentColor" y2="6"/>
            <text fill="currentColor" y="9" dy="0.71em">24</text>
          </g>
          <g class="tick" opacity="1" transform="translate(120.07097376484106,0)">
            <line stroke="currentColor" y2="6"/>
            <text fill="currentColor" y="9" dy="0.71em">25</text>
          </g>
          <g class="tick" opacity="1" transform="translate(146.64245021064727,0)">
            <line stroke="currentColor" y2="6"/>
            <text fill="currentColor" y="9" dy="0.71em">26</text>
          </g>
          <g class="tick" opacity="1" transform="translate(173.21392665645348,0)">
            <line stroke="currentColor" y2="6"/>
            <text fill="currentColor" y="9" dy="0.71em">27</text>
          </g>
          <g class="tick" opacity="1" transform="translate(199.78540310225966,0)">
            <line stroke="currentColor" y2="6"/>
            <text fill="currentColor" y="9" dy="0.71em">28</text>
          </g>
          <g class="tick" opacity="1" transform="translate(226.35687954806588,0)">
            <line stroke="currentColor" y2="6"/>
            <text fill="currentColor" y="9" dy="0.71em">29</text>
          </g>
          <g class="tick" opacity="1" transform="translate(252.9283559938721,0)">
            <line stroke="currentColor" y2="6"/>
            <text fill="currentColor" y="9" dy="0.71em">30</text>
          </g>
          <g class="tick" opacity="1" transform="translate(279.49983243967824,0)">
            <line stroke="currentColor" y2="6"/>
            <text fill="currentColor" y="9" dy="0.71em">31</text>
          </g>
          <g class="tick" opacity="1" transform="translate(306.0713088854844,0)">
            <line stroke="currentColor" y2="6"/>
            <text fill="currentColor" y="9" dy="0.71em">01</text>
            <text fill="currentColor" y="22" dy="0.71em">Febrero</text>
          </g>
          <g class="tick" opacity="1" transform="translate(332.64278533129067,0)">
            <line stroke="currentColor" y2="6"/>
            <text fill="currentColor" y="9" dy="0.71em">02</text>
          </g>
          <g class="tick" opacity="1" transform="translate(359.21426177709685,0)">
            <line stroke="currentColor" y2="6"/>
            <text fill="currentColor" y="9" dy="0.71em">03</text>
          </g>
          <g class="tick" opacity="1" transform="translate(385.78573822290303,0)">
            <line stroke="currentColor" y2="6"/>
            <text fill="currentColor" y="9" dy="0.71em">04</text>
          </g>
          <g class="tick" opacity="1" transform="translate(412.3572146687093,0)">
            <line stroke="currentColor" y2="6"/>
            <text fill="currentColor" y="9" dy="0.71em">05</text>
          </g>
          <g class="tick" opacity="1" transform="translate(438.92869111451546,0)">
            <line stroke="currentColor" y2="6"/>
            <text fill="currentColor" y="9" dy="0.71em">06</text>
          </g>
          <g class="tick" opacity="1" transform="translate(465.50016756032164,0)">
            <line stroke="currentColor" y2="6"/>
            <text fill="currentColor" y="9" dy="0.71em">07</text>
          </g>
          <g class="tick" opacity="1" transform="translate(492.0716440061279,0)">
            <line stroke="currentColor" y2="6"/>
            <text fill="currentColor" y="9" dy="0.71em">08</text>
          </g>
          <g class="tick" opacity="1" transform="translate(518.6431204519341,0)">
            <line stroke="currentColor" y2="6"/>
            <text fill="currentColor" y="9" dy="0.71em">09</text>
          </g>
          <g class="tick" opacity="1" transform="translate(545.2145968977403,0)">
            <line stroke="currentColor" y2="6"/>
            <text fill="currentColor" y="9" dy="0.71em">12</text>
          </g>
          <g class="tick" opacity="1" transform="translate(571.7860733435465,0)">
            <line stroke="currentColor" y2="6"/>
            <text fill="currentColor" y="9" dy="0.71em">13</text>
          </g>
          <g class="tick" opacity="1" transform="translate(598.3575497893527,0)">
            <line stroke="currentColor" y2="6"/>
            <text fill="currentColor" y="9" dy="0.71em">14</text>
          </g>
          <g class="tick" opacity="1" transform="translate(624.929026235159,0)">
            <line stroke="currentColor" y2="6"/>
            <text fill="currentColor" y="9" dy="0.71em">16</text>
          </g>
          <g class="tick" opacity="1" transform="translate(651.5005026809652,0)">
            <line stroke="currentColor" y2="6"/>
            <text fill="currentColor" y="9" dy="0.71em">17</text>
          </g>
          <g class="tick" opacity="1" transform="translate(678.0719791267713,0)">
            <line stroke="currentColor" y2="6"/>
            <text fill="currentColor" y="9" dy="0.71em">18</text>
          </g>
          <g class="tick" opacity="1" transform="translate(704.6434555725775,0)">
            <line stroke="currentColor" y2="6"/>
            <text fill="currentColor" y="9" dy="0.71em">19</text>
          </g>
          <g class="tick" opacity="1" transform="translate(731.2149320183837,0)">
            <line stroke="currentColor" y2="6"/>
            <text fill="currentColor" y="9" dy="0.71em">  20</text>
          </g>
        </g>
        <g id="yAxis" fill="none" font-size="10" font-family="sans-serif" text-anchor="end">
          <path class="domain" stroke="currentColor" d="M0,560V0"/>
          <g class="tick" opacity="1" transform="translate(0,560)">
            <line stroke="currentColor" x2="-6"/>
            <text fill="currentColor" x="-9" dy="0.32em">0</text>
          </g>
          <g class="tick" opacity="1" transform="translate(0,509.09090909090907)">
            <line stroke="currentColor" x2="-6"/>
            <text fill="currentColor" x="-9" dy="0.32em">1</text>
          </g>
          <g class="tick" opacity="1" transform="translate(0,458.18181818181813)">
            <line stroke="currentColor" x2="-6"/>
            <text fill="currentColor" x="-9" dy="0.32em">2</text>
          </g>
          <g class="tick" opacity="1" transform="translate(0,407.2727272727273)">
            <line stroke="currentColor" x2="-6"/>
            <text fill="currentColor" x="-9" dy="0.32em">3</text>
          </g>
          <g class="tick" opacity="1" transform="translate(0,356.3636363636364)">
            <line stroke="currentColor" x2="-6"/>
            <text fill="currentColor" x="-9" dy="0.32em">4</text>
          </g>
          <g class="tick" opacity="1" transform="translate(0,305.45454545454544)">
            <line stroke="currentColor" x2="-6"/>
            <text fill="currentColor" x="-9" dy="0.32em">5</text>
          </g>
          <g class="tick" opacity="1" transform="translate(0,254.54545454545456)">
            <line stroke="currentColor" x2="-6"/>
            <text fill="currentColor" x="-9" dy="0.32em">6</text>
          </g>
          <g class="tick" opacity="1" transform="translate(0,203.63636363636365)">
            <line stroke="currentColor" x2="-6"/>
            <text fill="currentColor" x="-9" dy="0.32em">7</text>
          </g>
          <g class="tick" opacity="1" transform="translate(0,152.72727272727272)">
            <line stroke="currentColor" x2="-6"/>
            <text fill="currentColor" x="-9" dy="0.32em">8</text>
          </g>
          <g class="tick" opacity="1" transform="translate(0,101.81818181818178)">
            <line stroke="currentColor" x2="-6"/>
            <text fill="currentColor" x="-9" dy="0.32em">9</text>
          </g>
          <g class="tick" opacity="1" transform="translate(0,50.90909090909093)">
            <line stroke="currentColor" x2="-6"/>
            <text fill="currentColor" x="-9" dy="0.32em">10</text>
          </g>
          <g class="tick" opacity="1" transform="translate(0,0)">
            <line stroke="currentColor" x2="-6"/>
            <text fill="currentColor" x="-9" dy="0.32em">11</text>
          </g>
        </g>
        <text y="556" x="745" text-anchor="end" style="font-family: Arial, sans-serif; font-size: 12px; fill: rgb(123, 123, 123); font-weight: bold;">night_date</text>
      </g>
    </g>
  </g>
  <g id="legend" transform="translate(805,20)">
    <g transform="translate(5,0)">
      <g class="legendColor" transform="translate(0,0)">
        <g class="legendCells" transform="translate(0,16)">
          <g class="cell" transform="translate(0, 0)">
            <rect class="swatch" height="15" width="15" style="fill: rgb(208, 207, 201);"/>
            <text class="label" transform="translate( 20, 12.5)" font-family="&quot;Arial&quot;, sans-serif" font-size="10px"><tspan x="0" dy="0em">Despierto</tspan></text>
          </g>
          <g class="cell" transform="translate(0, 21)">
            <rect class="swatch" height="15" width="15" style="fill: rgb(137, 180, 217);"/>
            <text class="label" transform="translate( 20, 12.5)" font-family="&quot;Arial&quot;, sans-serif" font-size="10px"><tspan x="0" dy="0em">Ligero</tspan></text>
          </g>
          <g class="cell" transform="translate(0, 42)">
            <rect class="swatch" height="15" width="15" style="fill: rgb(26, 79, 122);"/>
            <text class="label" transform="translate( 20, 12.5)" font-family="&quot;Arial&quot;, sans-serif" font-size="10px"><tspan x="0" dy="0em">Profundo</tspan></text>
          </g>
          <g class="cell" transform="translate(0, 63)">
            <rect class="swatch" height="15" width="15" style="fill: rgb(124, 92, 191);"/>
            <text class="label" transform="translate( 20, 12.5)" font-family="&quot;Arial&quot;, sans-serif" font-size="10px"><tspan x="0" dy="0em">REM</tspan></text>
          </g>
        </g>
        <text class="legendTitle" font-family="&quot;Arial&quot;, sans-serif" font-size="12px" font-weight="bold"><tspan x="0" dy="0em">Colors</tspan></text>
      </g>
    </g>
  </g>
</svg>
