<svg xmlns="http://www.w3.org/2000/svg" width="805" height="600"><rect width="805" height="600" x="0" y="0" fill="#FFFFFF" id="background"/><g id="viz"><g transform="translate(0,0)"><g transform="translate(10,20)"><g><path fill="#6aaed6" d="M0,50.90909090909093C10.06578947368421,50.90909090909093,10.06578947368421,164.4363636363636,20.13157894736842,164.4363636363636C30.19736842105263,164.4363636363636,30.19736842105263,396.5818181818182,40.26315789473684,396.5818181818182C50.328947368421055,396.5818181818182,50.328947368421055,359.9272727272728,60.39473684210526,359.9272727272728C70.46052631578948,359.9272727272728,70.46052631578948,375.20000000000005,80.52631578947368,375.20000000000005C90.59210526315789,375.20000000000005,90.59210526315789,402.6909090909091,100.6578947368421,402.6909090909091C110.7236842105263,402.6909090909091,110.7236842105263,371.1272727272727,120.78947368421052,371.1272727272727C130.85526315789474,371.1272727272727,130.85526315789474,399.6363636363636,140.92105263157893,399.6363636363636C150.98684210526315,399.6363636363636,150.98684210526315,395.5636363636364,161.05263157894737,395.5636363636364C171.11842105263156,395.5636363636364,171.11842105263156,373.67272727272723,181.18421052631578,373.67272727272723C191.25,373.67272727272723,191.25,422.03636363636366,201.3157894736842,422.03636363636366C211.3815789473684,422.03636363636366,211.3815789473684,375.20000000000005,221.44736842105263,375.20000000000005C231.51315789473682,375.20000000000005,231.51315789473682,407.2727272727273,241.57894736842104,407.2727272727273C251.64473684210526,407.2727272727273,251.64473684210526,375.20000000000005,261.7105263157895,375.20000000000005C271.77631578947364,375.20000000000005,271.77631578947364,432.2181818181818,281.84210526315786,432.2181818181818C291.9078947368421,432.2181818181818,291.9078947368421,342.1090909090909,301.9736842105263,342.1090909090909C312.0394736842105,342.1090909090909,312.0394736842105,403.70909090909095,322.10526315789474,403.70909090909095C332.17105263157896,403.70909090909095,332.17105263157896,367.56363636363636,342.2368421052632,367.56363636363636C352.3026315789474,367.56363636363636,352.3026315789474,214.3272727272727,362.36842105263156,214.3272727272727C372.4342105263158,214.3272727272727,372.4342105263158,186.32727272727269,382.5,186.32727272727269L382.5,560C372.4342105263158,560,372.4342105263158,560,362.36842105263156,560C352.3026315789474,560,352.3026315789474,560,342.2368421052632,560C332.17105263157896,560,332.17105263157896,560,322.10526315789474,560C312.0394736842105,560,312.0394736842105,560,301.9736842105263,560C291.9078947368421,560,291.9078947368421,560,281.84210526315786,560C271.77631578947364,560,271.77631578947364,560,261.7105263157895,560C251.64473684210526,560,251.64473684210526,560,241.57894736842104,560C231.51315789473682,560,231.51315789473682,560,221.44736842105263,560C211.3815789473684,560,211.3815789473684,560,201.3157894736842,560C191.25,560,191.25,560,181.18421052631578,560C171.11842105263156,560,171.11842105263156,560,161.05263157894737,560C150.98684210526315,560,150.98684210526315,560,140.92105263157893,560C130.85526315789474,560,130.85526315789474,560,120.78947368421052,560C110.7236842105263,560,110.7236842105263,560,100.6578947368421,560C90.59210526315789,560,90.59210526315789,560,80.52631578947368,560C70.46052631578948,560,70.46052631578948,560,60.39473684210526,560C50.328947368421055,560,50.328947368421055,560,40.26315789473684,560C30.19736842105263,560,30.19736842105263,560,20.13157894736842,560C10.06578947368421,560,10.06578947368421,560,0,560Z"><title>Ligero</title></path><path fill="#1a3a6b" d="M0,50.90909090909093C10.06578947368421,50.90909090909093,10.06578947368421,122.18181818181816,20.13157894736842,122.18181818181816C30.19736842105263,122.18181818181816,30.19736842105263,149.16363636363636,40.26315789473684,149.16363636363636C50.328947368421055,149.16363636363636,50.328947368421055,178.6909090909091,60.39473684210526,178.6909090909091C70.46052631578948,178.6909090909091,70.46052631578948,178.18181818181822,80.52631578947368,178.18181818181822C90.59210526315789,178.18181818181822,90.59210526315789,222.98181818181826,100.6578947368421,222.98181818181826C110.7236842105263,222.98181818181826,110.7236842105263,202.61818181818182,120.78947368421052,202.61818181818182C130.85526315789474,202.61818181818182,130.85526315789474,193.45454545454547,140.92105263157893,193.45454545454547C150.98684210526315,193.45454545454547,150.98684210526315,179.20000000000005,161.05263157894737,179.20000000000005C171.11842105263156,179.20000000000005,171.11842105263156,196.50909090909087,181.18421052631578,196.50909090909087C191.25,196.50909090909087,191.25,250.98181818181814,201.3157894736842,250.98181818181814C211.3815789473684,250.98181818181814,211.3815789473684,158.83636363636367,221.44736842105263,158.83636363636367C231.51315789473682,158.83636363636367,231.51315789473682,189.8909090909091,241.57894736842104,189.8909090909091C251.64473684210526,189.8909090909091,251.64473684210526,199.0545454545454,261.7105263157895,199.0545454545454C271.77631578947364,199.0545454545454,271.77631578947364,269.30909090909086,281.84210526315786,269.30909090909086C291.9078947368421,269.30909090909086,291.9078947368421,211.2727272727273,301.9736842105263,211.2727272727273C312.0394736842105,211.2727272727273,312.0394736842105,229.09090909090907,322.10526315789474,229.09090909090907C332.17105263157896,229.09090909090907,332.17105263157896,195.4909090909091,342.2368421052632,195.4909090909091C352.3026315789474,195.4909090909091,352.3026315789474,214.3272727272727,362.36842105263156,214.3272727272727C372.4342105263158,214.3272727272727,372.4342105263158,186.32727272727269,382.5,186.32727272727269L382.5,186.32727272727269C372.4342105263158,186.32727272727269,372.4342105263158,214.3272727272727,362.36842105263156,214.3272727272727C352.3026315789474,214.3272727272727,352.3026315789474,367.56363636363636,342.2368421052632,367.56363636363636C332.17105263157896,367.56363636363636,332.17105263157896,403.70909090909095,322.10526315789474,403.70909090909095C312.0394736842105,403.70909090909095,312.0394736842105,342.1090909090909,301.9736842105263,342.1090909090909C291.9078947368421,342.1090909090909,291.9078947368421,432.2181818181818,281.84210526315786,432.2181818181818C271.77631578947364,432.2181818181818,271.77631578947364,375.20000000000005,261.7105263157895,375.20000000000005C251.64473684210526,375.20000000000005,251.64473684210526,407.2727272727273,241.57894736842104,407.2727272727273C231.51315789473682,407.2727272727273,231.51315789473682,375.20000000000005,221.44736842105263,375.20000000000005C211.3815789473684,375.20000000000005,211.3815789473684,422.03636363636366,201.3157894736842,422.03636363636366C191.25,422.03636363636366,191.25,373.67272727272723,181.18421052631578,373.67272727272723C171.11842105263156,373.67272727272723,171.11842105263156,395.5636363636364,161.05263157894737,395.5636363636364C150.98684210526315,395.5636363636364,150.98684210526315,399.6363636363636,140.92105263157893,399.6363636363636C130.85526315789474,399.6363636363636,130.85526315789474,371.1272727272727,120.78947368421052,371.1272727272727C110.7236842105263,371.1272727272727,110.7236842105263,402.6909090909091,100.6578947368421,402.6909090909091C90.59210526315789,402.6909090909091,90.59210526315789,375.20000000000005,80.52631578947368,375.20000000000005C70.46052631578948,375.20000000000005,70.46052631578948,359.9272727272728,60.39473684210526,359.9272727272728C50.328947368421055,359.9272727272728,50.328947368421055,396.5818181818182,40.26315789473684,396.5818181818182C30.19736842105263,396.5818181818182,30.19736842105263,164.4363636363636,20.13157894736842,164.4363636363636C10.06578947368421,164.4363636363636,10.06578947368421,50.90909090909093,0,50.90909090909093Z"><title>Profundo</title></path><path fill="#8b5cf6" d="M0,50.90909090909093C10.06578947368421,50.90909090909093,10.06578947368421,50.90909090909093,20.13157894736842,50.90909090909093C30.19736842105263,50.90909090909093,30.19736842105263,69.23636363636359,40.26315789473684,69.23636363636359C50.328947368421055,69.23636363636359,50.328947368421055,50.90909090909093,60.39473684210526,50.90909090909093C70.46052631578948,50.90909090909093,70.46052631578948,50.40000000000005,80.52631578947368,50.40000000000005C90.59210526315789,50.40000000000005,90.59210526315789,50.90909090909099,100.6578947368421,50.90909090909099C110.7236842105263,50.90909090909099,110.7236842105263,50.90909090909093,120.78947368421052,50.90909090909093C130.85526315789474,50.90909090909093,130.85526315789474,50.90909090909093,140.92105263157893,50.90909090909093C150.98684210526315,50.90909090909093,150.98684210526315,66.18181818181817,161.05263157894737,66.18181818181817C171.11842105263156,66.18181818181817,171.11842105263156,51.41818181818181,181.18421052631578,51.41818181818181C191.25,51.41818181818181,191.25,50.90909090909093,201.3157894736842,50.90909090909093C211.3815789473684,50.90909090909093,211.3815789473684,50.90909090909093,221.44736842105263,50.90909090909093C231.51315789473682,50.90909090909093,231.51315789473682,68.7272727272727,241.57894736842104,68.7272727272727C251.64473684210526,68.7272727272727,251.64473684210526,50.90909090909093,261.7105263157895,50.90909090909093C271.77631578947364,50.90909090909093,271.77631578947364,111.4909090909091,281.84210526315786,111.4909090909091C291.9078947368421,111.4909090909091,291.9078947368421,75.85454545454547,301.9736842105263,75.85454545454547C312.0394736842105,75.85454545454547,312.0394736842105,77.89090909090906,322.10526315789474,77.89090909090906C332.17105263157896,77.89090909090906,332.17105263157896,121.1636363636364,342.2368421052632,121.1636363636364C352.3026315789474,121.1636363636364,352.3026315789474,64.6545454545454,362.36842105263156,64.6545454545454C372.4342105263158,64.6545454545454,372.4342105263158,92.65454545454537,382.5,92.65454545454537L382.5,186.32727272727269C372.4342105263158,186.32727272727269,372.4342105263158,214.3272727272727,362.36842105263156,214.3272727272727C352.3026315789474,214.3272727272727,352.3026315789474,195.4909090909091,342.2368421052632,195.4909090909091C332.17105263157896,195.4909090909091,332.17105263157896,229.09090909090907,322.10526315789474,229.09090909090907C312.0394736842105,229.09090909090907,312.0394736842105,211.2727272727273,301.9736842105263,211.2727272727273C291.9078947368421,211.2727272727273,291.9078947368421,269.30909090909086,281.84210526315786,269.30909090909086C271.77631578947364,269.30909090909086,271.77631578947364,199.0545454545454,261.7105263157895,199.0545454545454C251.64473684210526,199.0545454545454,251.64473684210526,189.8909090909091,241.57894736842104,189.8909090909091C231.51315789473682,189.8909090909091,231.51315789473682,158.83636363636367,221.44736842105263,158.83636363636367C211.3815789473684,158.83636363636367,211.3815789473684,250.98181818181814,201.3157894736842,250.98181818181814C191.25,250.98181818181814,191.25,196.50909090909087,181.18421052631578,196.50909090909087C171.11842105263156,196.50909090909087,171.11842105263156,179.20000000000005,161.05263157894737,179.20000000000005C150.98684210526315,179.20000000000005,150.98684210526315,193.45454545454547,140.92105263157893,193.45454545454547C130.85526315789474,193.45454545454547,130.85526315789474,202.61818181818182,120.78947368421052,202.61818181818182C110.7236842105263,202.61818181818182,110.7236842105263,222.98181818181826,100.6578947368421,222.98181818181826C90.59210526315789,222.98181818181826,90.59210526315789,178.18181818181822,80.52631578947368,178.18181818181822C70.46052631578948,178.18181818181822,70.46052631578948,178.6909090909091,60.39473684210526,178.6909090909091C50.328947368421055,178.6909090909091,50.328947368421055,149.16363636363636,40.26315789473684,149.16363636363636C30.19736842105263,149.16363636363636,30.19736842105263,122.18181818181816,20.13157894736842,122.18181818181816C10.06578947368421,122.18181818181816,10.06578947368421,50.90909090909093,0,50.90909090909093Z"><title>REM</title></path><path fill="#d1d5db" d="M0,50.90909090909093C10.06578947368421,50.90909090909093,10.06578947368421,50.90909090909093,20.13157894736842,50.90909090909093C30.19736842105263,50.90909090909093,30.19736842105263,50.90909090909093,40.26315789473684,50.90909090909093C50.328947368421055,50.90909090909093,50.328947368421055,50.90909090909093,60.39473684210526,50.90909090909093C70.46052631578948,50.90909090909093,70.46052631578948,50.40000000000005,80.52631578947368,50.40000000000005C90.59210526315789,50.40000000000005,90.59210526315789,50.90909090909099,100.6578947368421,50.90909090909099C110.7236842105263,50.90909090909099,110.7236842105263,50.90909090909093,120.78947368421052,50.90909090909093C130.85526315789474,50.90909090909093,130.85526315789474,50.90909090909093,140.92105263157893,50.90909090909093C150.98684210526315,50.90909090909093,150.98684210526315,50.40000000000005,161.05263157894737,50.40000000000005C171.11842105263156,50.40000000000005,171.11842105263156,51.41818181818181,181.18421052631578,51.41818181818181C191.25,51.41818181818181,191.25,50.90909090909093,201.3157894736842,50.90909090909093C211.3815789473684,50.90909090909093,211.3815789473684,50.90909090909093,221.44736842105263,50.90909090909093C231.51315789473682,50.90909090909093,231.51315789473682,50.90909090909093,241.57894736842104,50.90909090909093C251.64473684210526,50.90909090909093,251.64473684210526,50.90909090909093,261.7105263157895,50.90909090909093C271.77631578947364,50.90909090909093,271.77631578947364,50.90909090909093,281.84210526315786,50.90909090909093C291.9078947368421,50.90909090909093,291.9078947368421,50.90909090909093,301.9736842105263,50.90909090909093C312.0394736842105,50.90909090909093,312.0394736842105,50.399999999999984,322.10526315789474,50.399999999999984C332.17105263157896,50.399999999999984,332.17105263157896,50.40000000000005,342.2368421052632,50.40000000000005C352.3026315789474,50.40000000000005,352.3026315789474,50.399999999999984,362.36842105263156,50.399999999999984C372.4342105263158,50.399999999999984,372.4342105263158,51.41818181818181,382.5,51.41818181818181L382.5,92.65454545454537C372.4342105263158,92.65454545454537,372.4342105263158,64.6545454545454,362.36842105263156,64.6545454545454C352.3026315789474,64.6545454545454,352.3026315789474,121.1636363636364,342.2368421052632,121.1636363636364C332.17105263157896,121.1636363636364,332.17105263157896,77.89090909090906,322.10526315789474,77.89090909090906C312.0394736842105,77.89090909090906,312.0394736842105,75.85454545454547,301.9736842105263,75.85454545454547C291.9078947368421,75.85454545454547,291.9078947368421,111.4909090909091,281.84210526315786,111.4909090909091C271.77631578947364,111.4909090909091,271.77631578947364,50.90909090909093,261.7105263157895,50.90909090909093C251.64473684210526,50.90909090909093,251.64473684210526,68.7272727272727,241.57894736842104,68.7272727272727C231.51315789473682,68.7272727272727,231.51315789473682,50.90909090909093,221.44736842105263,50.90909090909093C211.3815789473684,50.90909090909093,211.3815789473684,50.90909090909093,201.3157894736842,50.90909090909093C191.25,50.90909090909093,191.25,51.41818181818181,181.18421052631578,51.41818181818181C171.11842105263156,51.41818181818181,171.11842105263156,66.18181818181817,161.05263157894737,66.18181818181817C150.98684210526315,66.18181818181817,150.98684210526315,50.90909090909093,140.92105263157893,50.90909090909093C130.85526315789474,50.90909090909093,130.85526315789474,50.90909090909093,120.78947368421052,50.90909090909093C110.7236842105263,50.90909090909093,110.7236842105263,50.90909090909099,100.6578947368421,50.90909090909099C90.59210526315789,50.90909090909099,90.59210526315789,50.40000000000005,80.52631578947368,50.40000000000005C70.46052631578948,50.40000000000005,70.46052631578948,50.90909090909093,60.39473684210526,50.90909090909093C50.328947368421055,50.90909090909093,50.328947368421055,69.23636363636359,40.26315789473684,69.23636363636359C30.19736842105263,69.23636363636359,30.19736842105263,50.90909090909093,20.13157894736842,50.90909090909093C10.06578947368421,50.90909090909093,10.06578947368421,50.90909090909093,0,50.90909090909093Z"><title>Despierto</title></path></g><g id="xAxis" transform="translate(0,560)" fill="none" font-size="10" font-family="sans-serif" text-anchor="middle"><path class="domain" stroke="currentColor" d="M0,0H382.5"/><g class="tick" opacity="1" transform="translate(0,0)"><line stroke="currentColor" y2="6"/><text fill="currentColor" y="9" dy="0.71em">0</text></g><g class="tick" opacity="1" transform="translate(40.26315789473684,0)"><line stroke="currentColor" y2="6"/><text fill="currentColor" y="9" dy="0.71em">10</text></g><g class="tick" opacity="1" transform="translate(80.52631578947368,0)"><line stroke="currentColor" y2="6"/><text fill="currentColor" y="9" dy="0.71em">20</text></g><g class="tick" opacity="1" transform="translate(120.78947368421052,0)"><line stroke="currentColor" y2="6"/><text fill="currentColor" y="9" dy="0.71em">30</text></g><g class="tick" opacity="1" transform="translate(161.05263157894737,0)"><line stroke="currentColor" y2="6"/><text fill="currentColor" y="9" dy="0.71em">40</text></g><g class="tick" opacity="1" transform="translate(201.3157894736842,0)"><line stroke="currentColor" y2="6"/><text fill="currentColor" y="9" dy="0.71em">50</text></g><g class="tick" opacity="1" transform="translate(241.57894736842104,0)"><line stroke="currentColor" y2="6"/><text fill="currentColor" y="9" dy="0.71em">60</text></g><g class="tick" opacity="1" transform="translate(281.84210526315786,0)"><line stroke="currentColor" y2="6"/><text fill="currentColor" y="9" dy="0.71em">70</text></g><g class="tick" opacity="1" transform="translate(322.10526315789474,0)"><line stroke="currentColor" y2="6"/><text fill="currentColor" y="9" dy="0.71em">80</text></g><g class="tick" opacity="1" transform="translate(362.36842105263156,0)"><line stroke="currentColor" y2="6"/><text fill="currentColor" y="9" dy="0.71em">90</text></g></g><text y="556" x="382.5" text-anchor="end" style="font-family: Arial, sans-serif; font-size: 12px; fill: rgb(123, 123, 123); font-weight: bold;">Progreso de la noche</text><text x="4" text-anchor="start" dominant-baseline="hanging" style="font-family: Arial, sans-serif; font-size: 12px; fill: rgb(123, 123, 123); font-weight: bold;">Distribucion promedio</text><g id="labels"><text x="0" y="305.45454545454544" text-anchor="start" alignment-baseline="middle" style="font-family: Arial, sans-serif; font-size: 10px; fill: black; font-weight: bold;">Ligero</text><text x="40.26315789473684" y="272.8727272727272" text-anchor="middle" alignment-baseline="middle" style="font-family: Arial, sans-serif; font-size: 10px; fill: black; font-weight: bold;">Profundo</text><text x="201.3157894736842" y="150.9454545454546" text-anchor="middle" alignment-baseline="middle" style="font-family: Arial, sans-serif; font-size: 10px; fill: black; font-weight: bold;">REM</text><text x="342.2368421052632" y="85.78181818181825" text-anchor="middle" alignment-baseline="middle" style="font-family: Arial, sans-serif; font-size: 10px; fill: black; font-weight: bold;">Despierto</text></g></g><text x="4" y="4" style="font-family: Arial, sans-serif; font-size: 12px; fill: black; font-weight: bold; dominant-baseline: hanging;">Semana</text></g><g transform="translate(402.5,0)"><g transform="translate(10,20)"><g><path fill="#6aaed6" d="M0,50.90909090909093C10.06578947368421,50.90909090909093,10.06578947368421,107.4181818181818,20.13157894736842,107.4181818181818C30.19736842105263,107.4181818181818,30.19736842105263,397.59999999999997,40.26315789473684,397.59999999999997C50.328947368421055,397.59999999999997,50.328947368421055,376.21818181818185,60.39473684210526,376.21818181818185C70.46052631578948,376.21818181818185,70.46052631578948,355.3454545454545,80.52631578947368,355.3454545454545C90.59210526315789,355.3454545454545,90.59210526315789,436.29090909090905,100.6578947368421,436.29090909090905C110.7236842105263,436.29090909090905,110.7236842105263,414.90909090909093,120.78947368421052,414.90909090909093C130.85526315789474,414.90909090909093,130.85526315789474,360.94545454545454,140.92105263157893,360.94545454545454C150.98684210526315,360.94545454545454,150.98684210526315,387.41818181818184,161.05263157894737,387.41818181818184C171.11842105263156,387.41818181818184,171.11842105263156,369.6,181.18421052631578,369.6C191.25,369.6,191.25,383.3454545454546,201.3157894736842,383.3454545454546C211.3815789473684,383.3454545454546,211.3815789473684,416.43636363636364,221.44736842105263,416.43636363636364C231.51315789473682,416.43636363636364,231.51315789473682,329.3818181818182,241.57894736842104,329.3818181818182C251.64473684210526,329.3818181818182,251.64473684210526,339.5636363636364,261.7105263157895,339.5636363636364C271.77631578947364,339.5636363636364,271.77631578947364,382.3272727272727,281.84210526315786,382.3272727272727C291.9078947368421,382.3272727272727,291.9078947368421,465.8181818181818,301.9736842105263,465.8181818181818C312.0394736842105,465.8181818181818,312.0394736842105,416.43636363636364,322.10526315789474,416.43636363636364C332.17105263157896,416.43636363636364,332.17105263157896,153.2363636363636,342.2368421052632,153.2363636363636C352.3026315789474,153.2363636363636,352.3026315789474,332.94545454545454,362.36842105263156,332.94545454545454C372.4342105263158,332.94545454545454,372.4342105263158,387.41818181818184,382.5,387.41818181818184L382.5,560C372.4342105263158,560,372.4342105263158,560,362.36842105263156,560C352.3026315789474,560,352.3026315789474,560,342.2368421052632,560C332.17105263157896,560,332.17105263157896,560,322.10526315789474,560C312.0394736842105,560,312.0394736842105,560,301.9736842105263,560C291.9078947368421,560,291.9078947368421,560,281.84210526315786,560C271.77631578947364,560,271.77631578947364,560,261.7105263157895,560C251.64473684210526,560,251.64473684210526,560,241.57894736842104,560C231.51315789473682,560,231.51315789473682,560,221.44736842105263,560C211.3815789473684,560,211.3815789473684,560,201.3157894736842,560C191.25,560,191.25,560,181.18421052631578,560C171.11842105263156,560,171.11842105263156,560,161.05263157894737,560C150.98684210526315,560,150.98684210526315,560,140.92105263157893,560C130.85526315789474,560,130.85526315789474,560,120.78947368421052,560C110.7236842105263,560,110.7236842105263,560,100.6578947368421,560C90.59210526315789,560,90.59210526315789,560,80.52631578947368,560C70.46052631578948,560,70.46052631578948,560,60.39473684210526,560C50.328947368421055,560,50.328947368421055,560,40.26315789473684,560C30.19736842105263,560,30.19736842105263,560,20.13157894736842,560C10.06578947368421,560,10.06578947368421,560,0,560Z"><title>Ligero</title></path><path fill="#1a3a6b" d="M0,50.90909090909093C10.06578947368421,50.90909090909093,10.06578947368421,83.49090909090907,20.13157894736842,83.49090909090907C30.19736842105263,83.49090909090907,30.19736842105263,155.78181818181812,40.26315789473684,155.78181818181812C50.328947368421055,155.78181818181812,50.328947368421055,135.4181818181818,60.39473684210526,135.4181818181818C70.46052631578948,135.4181818181818,70.46052631578948,205.6727272727273,80.52631578947368,205.6727272727273C90.59210526315789,205.6727272727273,90.59210526315789,231.63636363636365,100.6578947368421,231.63636363636365C110.7236842105263,231.63636363636365,110.7236842105263,221.96363636363637,120.78947368421052,221.96363636363637C130.85526315789474,221.96363636363637,130.85526315789474,157.30909090909097,140.92105263157893,157.30909090909097C150.98684210526315,157.30909090909097,150.98684210526315,173.0909090909091,161.05263157894737,173.0909090909091C171.11842105263156,173.0909090909091,171.11842105263156,214.83636363636364,181.18421052631578,214.83636363636364C191.25,214.83636363636364,191.25,240.79999999999995,201.3157894736842,240.79999999999995C211.3815789473684,240.79999999999995,211.3815789473684,181.23636363636362,221.44736842105263,181.23636363636362C231.51315789473682,181.23636363636362,231.51315789473682,174.61818181818185,241.57894736842104,174.61818181818185C251.64473684210526,174.61818181818185,251.64473684210526,110.98181818181821,261.7105263157895,110.98181818181821C271.77631578947364,110.98181818181821,271.77631578947364,220.9454545454546,281.84210526315786,220.9454545454546C291.9078947368421,220.9454545454546,291.9078947368421,322.25454545454545,301.9736842105263,322.25454545454545C312.0394736842105,322.25454545454545,312.0394736842105,280.50909090909096,322.10526315789474,280.50909090909096C332.17105263157896,280.50909090909096,332.17105263157896,153.2363636363636,342.2368421052632,153.2363636363636C352.3026315789474,153.2363636363636,352.3026315789474,332.94545454545454,362.36842105263156,332.94545454545454C372.4342105263158,332.94545454545454,372.4342105263158,387.41818181818184,382.5,387.41818181818184L382.5,387.41818181818184C372.4342105263158,387.41818181818184,372.4342105263158,332.94545454545454,362.36842105263156,332.94545454545454C352.3026315789474,332.94545454545454,352.3026315789474,153.2363636363636,342.2368421052632,153.2363636363636C332.17105263157896,153.2363636363636,332.17105263157896,416.43636363636364,322.10526315789474,416.43636363636364C312.0394736842105,416.43636363636364,312.0394736842105,465.8181818181818,301.9736842105263,465.8181818181818C291.9078947368421,465.8181818181818,291.9078947368421,382.3272727272727,281.84210526315786,382.3272727272727C271.77631578947364,382.3272727272727,271.77631578947364,339.5636363636364,261.7105263157895,339.5636363636364C251.64473684210526,339.5636363636364,251.64473684210526,329.3818181818182,241.57894736842104,329.3818181818182C231.51315789473682,329.3818181818182,231.51315789473682,416.43636363636364,221.44736842105263,416.43636363636364C211.3815789473684,416.43636363636364,211.3815789473684,383.3454545454546,201.3157894736842,383.3454545454546C191.25,383.3454545454546,191.25,369.6,181.18421052631578,369.6C171.11842105263156,369.6,171.11842105263156,387.41818181818184,161.05263157894737,387.41818181818184C150.98684210526315,387.41818181818184,150.98684210526315,360.94545454545454,140.92105263157893,360.94545454545454C130.85526315789474,360.94545454545454,130.85526315789474,414.90909090909093,120.78947368421052,414.90909090909093C110.7236842105263,414.90909090909093,110.7236842105263,436.29090909090905,100.6578947368421,436.29090909090905C90.59210526315789,436.29090909090905,90.59210526315789,355.3454545454545,80.52631578947368,355.3454545454545C70.46052631578948,355.3454545454545,70.46052631578948,376.21818181818185,60.39473684210526,376.21818181818185C50.328947368421055,376.21818181818185,50.328947368421055,397.59999999999997,40.26315789473684,397.59999999999997C30.19736842105263,397.59999999999997,30.19736842105263,107.4181818181818,20.13157894736842,107.4181818181818C10.06578947368421,107.4181818181818,10.06578947368421,50.90909090909093,0,50.90909090909093Z"><title>Profundo</title></path><path fill="#8b5cf6" d="M0,50.90909090909093C10.06578947368421,50.90909090909093,10.06578947368421,50.909090909090864,20.13157894736842,50.909090909090864C30.19736842105263,50.909090909090864,30.19736842105263,63.1272727272727,40.26315789473684,63.1272727272727C50.328947368421055,63.1272727272727,50.328947368421055,51.41818181818181,60.39473684210526,51.41818181818181C70.46052631578948,51.41818181818181,70.46052631578948,50.90909090909093,80.52631578947368,50.90909090909093C90.59210526315789,50.90909090909093,90.59210526315789,50.90909090909093,100.6578947368421,50.90909090909093C110.7236842105263,50.90909090909093,110.7236842105263,50.90909090909093,120.78947368421052,50.90909090909093C130.85526315789474,50.90909090909093,130.85526315789474,93.67272727272731,140.92105263157893,93.67272727272731C150.98684210526315,93.67272727272731,150.98684210526315,50.90909090909093,161.05263157894737,50.90909090909093C171.11842105263156,50.90909090909093,171.11842105263156,50.90909090909093,181.18421052631578,50.90909090909093C191.25,50.90909090909093,191.25,50.90909090909093,201.3157894736842,50.90909090909093C211.3815789473684,50.90909090909093,211.3815789473684,51.41818181818181,221.44736842105263,51.41818181818181C231.51315789473682,51.41818181818181,231.51315789473682,65.16363636363641,241.57894736842104,65.16363636363641C251.64473684210526,65.16363636363641,251.64473684210526,50.40000000000005,261.7105263157895,50.40000000000005C271.77631578947364,50.40000000000005,271.77631578947364,50.90909090909093,281.84210526315786,50.90909090909093C291.9078947368421,50.90909090909093,291.9078947368421,250.47272727272727,301.9736842105263,250.47272727272727C312.0394736842105,250.47272727272727,312.0394736842105,139.49090909090913,322.10526315789474,139.49090909090913C332.17105263157896,139.49090909090913,332.17105263157896,63.1272727272727,342.2368421052632,63.1272727272727C352.3026315789474,63.1272727272727,352.3026315789474,221.96363636363637,362.36842105263156,221.96363636363637C372.4342105263158,221.96363636363637,372.4342105263158,256.07272727272726,382.5,256.07272727272726L382.5,387.41818181818184C372.4342105263158,387.41818181818184,372.4342105263158,332.94545454545454,362.36842105263156,332.94545454545454C352.3026315789474,332.94545454545454,352.3026315789474,153.2363636363636,342.2368421052632,153.2363636363636C332.17105263157896,153.2363636363636,332.17105263157896,280.50909090909096,322.10526315789474,280.50909090909096C312.0394736842105,280.50909090909096,312.0394736842105,322.25454545454545,301.9736842105263,322.25454545454545C291.9078947368421,322.25454545454545,291.9078947368421,220.9454545454546,281.84210526315786,220.9454545454546C271.77631578947364,220.9454545454546,271.77631578947364,110.98181818181821,261.7105263157895,110.98181818181821C251.64473684210526,110.98181818181821,251.64473684210526,174.61818181818185,241.57894736842104,174.61818181818185C231.51315789473682,174.61818181818185,231.51315789473682,181.23636363636362,221.44736842105263,181.23636363636362C211.3815789473684,181.23636363636362,211.3815789473684,240.79999999999995,201.3157894736842,240.79999999999995C191.25,240.79999999999995,191.25,214.83636363636364,181.18421052631578,214.83636363636364C171.11842105263156,214.83636363636364,171.11842105263156,173.0909090909091,161.05263157894737,173.0909090909091C150.98684210526315,173.0909090909091,150.98684210526315,157.30909090909097,140.92105263157893,157.30909090909097C130.85526315789474,157.30909090909097,130.85526315789474,221.96363636363637,120.78947368421052,221.96363636363637C110.7236842105263,221.96363636363637,110.7236842105263,231.63636363636365,100.6578947368421,231.63636363636365C90.59210526315789,231.63636363636365,90.59210526315789,205.6727272727273,80.52631578947368,205.6727272727273C70.46052631578948,205.6727272727273,70.46052631578948,135.4181818181818,60.39473684210526,135.4181818181818C50.328947368421055,135.4181818181818,50.328947368421055,155.78181818181812,40.26315789473684,155.78181818181812C30.19736842105263,155.78181818181812,30.19736842105263,83.49090909090907,20.13157894736842,83.49090909090907C10.06578947368421,83.49090909090907,10.06578947368421,50.90909090909093,0,50.90909090909093Z"><title>REM</title></path><path fill="#d1d5db" d="M0,50.90909090909093C10.06578947368421,50.90909090909093,10.06578947368421,50.909090909090864,20.13157894736842,50.909090909090864C30.19736842105263,50.909090909090864,30.19736842105263,50.399999999999984,40.26315789473684,50.399999999999984C50.328947368421055,50.399999999999984,50.328947368421055,51.41818181818181,60.39473684210526,51.41818181818181C70.46052631578948,51.41818181818181,70.46052631578948,50.90909090909093,80.52631578947368,50.90909090909093C90.59210526315789,50.90909090909093,90.59210526315789,50.90909090909093,100.6578947368421,50.90909090909093C110.7236842105263,50.90909090909093,110.7236842105263,50.90909090909093,120.78947368421052,50.90909090909093C130.85526315789474,50.90909090909093,130.85526315789474,51.41818181818187,140.92105263157893,51.41818181818187C150.98684210526315,51.41818181818187,150.98684210526315,50.90909090909093,161.05263157894737,50.90909090909093C171.11842105263156,50.90909090909093,171.11842105263156,50.90909090909093,181.18421052631578,50.90909090909093C191.25,50.90909090909093,191.25,50.90909090909093,201.3157894736842,50.90909090909093C211.3815789473684,50.90909090909093,211.3815789473684,51.41818181818181,221.44736842105263,51.41818181818181C231.51315789473682,51.41818181818181,231.51315789473682,50.40000000000005,241.57894736842104,50.40000000000005C251.64473684210526,50.40000000000005,251.64473684210526,50.40000000000005,261.7105263157895,50.40000000000005C271.77631578947364,50.40000000000005,271.77631578947364,50.90909090909093,281.84210526315786,50.90909090909093C291.9078947368421,50.90909090909093,291.9078947368421,50.90909090909093,301.9736842105263,50.90909090909093C312.0394736842105,50.90909090909093,312.0394736842105,51.41818181818187,322.10526315789474,51.41818181818187C332.17105263157896,51.41818181818187,332.17105263157896,51.41818181818181,342.2368421052632,51.41818181818181C352.3026315789474,51.41818181818181,352.3026315789474,50.399999999999984,362.36842105263156,50.399999999999984C372.4342105263158,50.399999999999984,372.4342105263158,50.90909090909093,382.5,50.90909090909093L382.5,256.07272727272726C372.4342105263158,256.07272727272726,372.4342105263158,221.96363636363637,362.36842105263156,221.96363636363637C352.3026315789474,221.96363636363637,352.3026315789474,63.1272727272727,342.2368421052632,63.1272727272727C332.17105263157896,63.1272727272727,332.17105263157896,139.49090909090913,322.10526315789474,139.49090909090913C312.0394736842105,139.49090909090913,312.0394736842105,250.47272727272727,301.9736842105263,250.47272727272727C291.9078947368421,250.47272727272727,291.9078947368421,50.90909090909093,281.84210526315786,50.90909090909093C271.77631578947364,50.90909090909093,271.77631578947364,50.40000000000005,261.7105263157895,50.40000000000005C251.64473684210526,50.40000000000005,251.64473684210526,65.16363636363641,241.57894736842104,65.16363636363641C231.51315789473682,65.16363636363641,231.51315789473682,51.41818181818181,221.44736842105263,51.41818181818181C211.3815789473684,51.41818181818181,211.3815789473684,50.90909090909093,201.3157894736842,50.90909090909093C191.25,50.90909090909093,191.25,50.90909090909093,181.18421052631578,50.90909090909093C171.11842105263156,50.90909090909093,171.11842105263156,50.90909090909093,161.05263157894737,50.90909090909093C150.98684210526315,50.90909090909093,150.98684210526315,93.67272727272731,140.92105263157893,93.67272727272731C130.85526315789474,93.67272727272731,130.85526315789474,50.90909090909093,120.78947368421052,50.90909090909093C110.7236842105263,50.90909090909093,110.7236842105263,50.90909090909093,100.6578947368421,50.90909090909093C90.59210526315789,50.90909090909093,90.59210526315789,50.90909090909093,80.52631578947368,50.90909090909093C70.46052631578948,50.90909090909093,70.46052631578948,51.41818181818181,60.39473684210526,51.41818181818181C50.328947368421055,51.41818181818181,50.328947368421055,63.1272727272727,40.26315789473684,63.1272727272727C30.19736842105263,63.1272727272727,30.19736842105263,50.909090909090864,20.13157894736842,50.909090909090864C10.06578947368421,50.909090909090864,10.06578947368421,50.90909090909093,0,50.90909090909093Z"><title>Despierto</title></path></g><g id="xAxis" transform="translate(0,560)" fill="none" font-size="10" font-family="sans-serif" text-anchor="middle"><path class="domain" stroke="currentColor" d="M0,0H382.5"/><g class="tick" opacity="1" transform="translate(0,0)"><line stroke="currentColor" y2="6"/><text fill="currentColor" y="9" dy="0.71em">0</text></g><g class="tick" opacity="1" transform="translate(40.26315789473684,0)"><line stroke="currentColor" y2="6"/><text fill="currentColor" y="9" dy="0.71em">10</text></g><g class="tick" opacity="1" transform="translate(80.52631578947368,0)"><line stroke="currentColor" y2="6"/><text fill="currentColor" y="9" dy="0.71em">20</text></g><g class="tick" opacity="1" transform="translate(120.78947368421052,0)"><line stroke="currentColor" y2="6"/><text fill="currentColor" y="9" dy="0.71em">30</text></g><g class="tick" opacity="1" transform="translate(161.05263157894737,0)"><line stroke="currentColor" y2="6"/><text fill="currentColor" y="9" dy="0.71em">40</text></g><g class="tick" opacity="1" transform="translate(201.3157894736842,0)"><line stroke="currentColor" y2="6"/><text fill="currentColor" y="9" dy="0.71em">50</text></g><g class="tick" opacity="1" transform="translate(241.57894736842104,0)"><line stroke="currentColor" y2="6"/><text fill="currentColor" y="9" dy="0.71em">60</text></g><g class="tick" opacity="1" transform="translate(281.84210526315786,0)"><line stroke="currentColor" y2="6"/><text fill="currentColor" y="9" dy="0.71em">70</text></g><g class="tick" opacity="1" transform="translate(322.10526315789474,0)"><line stroke="currentColor" y2="6"/><text fill="currentColor" y="9" dy="0.71em">80</text></g><g class="tick" opacity="1" transform="translate(362.36842105263156,0)"><line stroke="currentColor" y2="6"/><text fill="currentColor" y="9" dy="0.71em">90</text></g></g><text y="556" x="382.5" text-anchor="end" display="none" style="font-family: Arial, sans-serif; font-size: 12px; fill: rgb(123, 123, 123); font-weight: bold;">Progreso de la noche</text><text x="4" text-anchor="start" dominant-baseline="hanging" display="none" style="font-family: Arial, sans-serif; font-size: 12px; fill: rgb(123, 123, 123); font-weight: bold;">Distribucion promedio</text><g id="labels"><text x="0" y="305.45454545454544" text-anchor="start" alignment-baseline="middle" style="font-family: Arial, sans-serif; font-size: 10px; fill: black; font-weight: bold;">Ligero</text><text x="40.26315789473684" y="276.69090909090903" text-anchor="middle" alignment-baseline="middle" style="font-family: Arial, sans-serif; font-size: 10px; fill: black; font-weight: bold;">Profundo</text><text x="201.3157894736842" y="145.85454545454547" text-anchor="middle" alignment-baseline="middle" style="font-family: Arial, sans-serif; font-size: 10px; fill: black; font-weight: bold;">REM</text><text x="382.5" y="153.49090909090913" text-anchor="end" alignment-baseline="middle" style="font-family: Arial, sans-serif; font-size: 10px; fill: black; font-weight: bold;">Despierto</text></g></g><text x="4" y="4" style="font-family: Arial, sans-serif; font-size: 12px; fill: black; font-weight: bold; dominant-baseline: hanging;">Fin de semana</text></g></g></svg>